<svg width="29" height="30" viewBox="0 0 29 30" fill="none" xmlns="http://www.w3.org/2000/svg">
<path d="M6 8L3 12V26C3 26.5304 3.21071 27.0391 3.58579 27.4142C3.96086 27.7893 4.46957 28 5 28H19C19.5304 28 20.0391 27.7893 20.4142 27.4142C20.7893 27.0391 21 26.5304 21 26V12L18 8H6Z" stroke="white" stroke-width="2" stroke-linecap="round" stroke-linejoin="round"/>
<path d="M3 12H21" stroke="white" stroke-width="2" stroke-linecap="round" stroke-linejoin="round"/>
<path d="M16 16C16 17.0609 15.5786 18.0783 14.8284 18.8284C14.0783 19.5786 13.0609 20 12 20C10.9391 20 9.92172 19.5786 9.17157 18.8284C8.42143 18.0783 8 17.0609 8 16" stroke="white" stroke-width="2" stroke-linecap="round" stroke-linejoin="round"/>
<circle cx="21" cy="8" r="8" fill="#82BA01"/>
<path d="M24.2988 12H18.709V11.2207L21.6621 7.93945C22.0996 7.44336 22.4004 7.04102 22.5645 6.73242C22.7324 6.41992 22.8164 6.09766 22.8164 5.76562C22.8164 5.32031 22.6816 4.95508 22.4121 4.66992C22.1426 4.38477 21.7832 4.24219 21.334 4.24219C20.7949 4.24219 20.375 4.39648 20.0742 4.70508C19.7773 5.00977 19.6289 5.43555 19.6289 5.98242H18.5449C18.5449 5.19727 18.7969 4.5625 19.3008 4.07812C19.8086 3.59375 20.4863 3.35156 21.334 3.35156C22.127 3.35156 22.7539 3.56055 23.2148 3.97852C23.6758 4.39258 23.9062 4.94531 23.9062 5.63672C23.9062 6.47656 23.3711 7.47656 22.3008 8.63672L20.0156 11.1152H24.2988V12Z" fill="white"/>
</svg>
