<svg width="56" height="56" viewBox="0 0 56 56" fill="none" xmlns="http://www.w3.org/2000/svg">
<circle cx="28" cy="28" r="28" fill="white"/>
<path d="M20 14.6667L16 20V38.6667C16 39.3739 16.281 40.0522 16.781 40.5523C17.2811 41.0524 17.9594 41.3334 18.6667 41.3334H37.3333C38.0406 41.3334 38.7189 41.0524 39.219 40.5523C39.719 40.0522 40 39.3739 40 38.6667V20L36 14.6667H20Z" stroke="#82BA01" stroke-width="2" stroke-linecap="round" stroke-linejoin="round"/>
<path d="M16 20H40" stroke="#82BA01" stroke-width="2" stroke-linecap="round" stroke-linejoin="round"/>
<path d="M33.3334 25.3333C33.3334 26.7478 32.7715 28.1044 31.7713 29.1045C30.7711 30.1047 29.4146 30.6666 28.0001 30.6666C26.5856 30.6666 25.229 30.1047 24.2288 29.1045C23.2287 28.1044 22.6667 26.7478 22.6667 25.3333" stroke="#82BA01" stroke-width="2" stroke-linecap="round" stroke-linejoin="round"/>
<circle cx="40" cy="14" r="8" fill="#6701BA"/>
<path d="M43.2988 18H37.709V17.2207L40.6621 13.9395C41.0996 13.4434 41.4004 13.041 41.5645 12.7324C41.7324 12.4199 41.8164 12.0977 41.8164 11.7656C41.8164 11.3203 41.6816 10.9551 41.4121 10.6699C41.1426 10.3848 40.7832 10.2422 40.334 10.2422C39.7949 10.2422 39.375 10.3965 39.0742 10.7051C38.7773 11.0098 38.6289 11.4355 38.6289 11.9824H37.5449C37.5449 11.1973 37.7969 10.5625 38.3008 10.0781C38.8086 9.59375 39.4863 9.35156 40.334 9.35156C41.127 9.35156 41.7539 9.56055 42.2148 9.97852C42.6758 10.3926 42.9062 10.9453 42.9062 11.6367C42.9062 12.4766 42.3711 13.4766 41.3008 14.6367L39.0156 17.1152H43.2988V18Z" fill="white"/>
</svg>
