<svg width="56" height="56" viewBox="0 0 56 56" fill="none" xmlns="http://www.w3.org/2000/svg">
<circle cx="28" cy="28" r="28" fill="white"/>
<path d="M38.6666 40V37.3333C38.6666 35.9188 38.1047 34.5623 37.1045 33.5621C36.1043 32.5619 34.7477 32 33.3333 32H22.6666C21.2521 32 19.8955 32.5619 18.8953 33.5621C17.8952 34.5623 17.3333 35.9188 17.3333 37.3333V40" stroke="#82BA01" stroke-width="2" stroke-linecap="round" stroke-linejoin="round"/>
<path d="M28.0001 26.6667C30.9456 26.6667 33.3334 24.2789 33.3334 21.3333C33.3334 18.3878 30.9456 16 28.0001 16C25.0546 16 22.6667 18.3878 22.6667 21.3333C22.6667 24.2789 25.0546 26.6667 28.0001 26.6667Z" stroke="#82BA01" stroke-width="2" stroke-linecap="round" stroke-linejoin="round"/>
</svg>
