<svg width="56" height="56" viewBox="0 0 56 56" fill="none" xmlns="http://www.w3.org/2000/svg">
<circle cx="28" cy="28" r="28" fill="white"/>
<path d="M20 14.6667L16 20V38.6667C16 39.3739 16.281 40.0522 16.781 40.5523C17.2811 41.0524 17.9594 41.3334 18.6667 41.3334H37.3333C38.0406 41.3334 38.7189 41.0524 39.219 40.5523C39.719 40.0522 40 39.3739 40 38.6667V20L36 14.6667H20Z" stroke="#82BA01" stroke-width="2" stroke-linecap="round" stroke-linejoin="round"/>
<path d="M16 20H40" stroke="#82BA01" stroke-width="2" stroke-linecap="round" stroke-linejoin="round"/>
<path d="M33.3332 25.3333C33.3332 26.7478 32.7713 28.1044 31.7711 29.1045C30.7709 30.1047 29.4143 30.6666 27.9998 30.6666C26.5853 30.6666 25.2288 30.1047 24.2286 29.1045C23.2284 28.1044 22.6665 26.7478 22.6665 25.3333" stroke="#82BA01" stroke-width="2" stroke-linecap="round" stroke-linejoin="round"/>
</svg>
