<svg width="56" height="56" viewBox="0 0 56 56" fill="none" xmlns="http://www.w3.org/2000/svg">
<circle cx="28" cy="28" r="28" fill="white"/>
<path d="M38.6668 40V37.3333C38.6668 35.9188 38.1049 34.5623 37.1047 33.5621C36.1045 32.5619 34.748 32 33.3335 32H22.6668C21.2523 32 19.8958 32.5619 18.8956 33.5621C17.8954 34.5623 17.3335 35.9188 17.3335 37.3333V40" stroke="#82BA01" stroke-width="2" stroke-linecap="round" stroke-linejoin="round"/>
<path d="M27.9998 26.6667C30.9454 26.6667 33.3332 24.2789 33.3332 21.3333C33.3332 18.3878 30.9454 16 27.9998 16C25.0543 16 22.6665 18.3878 22.6665 21.3333C22.6665 24.2789 25.0543 26.6667 27.9998 26.6667Z" stroke="#82BA01" stroke-width="2" stroke-linecap="round" stroke-linejoin="round"/>
</svg>
